# xmcd
#
# Track frame offsets: 
#        150
#        14675
#        43099
#        61173
#        115394
#        128910
#        150550
#        164797
#        193027
#        208931
#        236860
#
# Disc length: 3623 seconds
#
# Revision: 5
# Processed by: cddbd v1.5.2PL0 Copyright (c) Steve Scherf et al.
# Submitted via: ExactAudioCopyFreeDBPlugin 1.0
#
DISCID=a50e250b
DTITLE=Die drei Fragezeichen - 143 - Und die Poker-Hölle
DYEAR=2010
DGENRE=Vocal
TTITLE0=Nicht zu packen
TTITLE1=Onkel Tony
TTITLE2=Ruby Tuesday
TTITLE3=Babyface
TTITLE4=Schnitzeljagd
TTITLE5=Atbash
TTITLE6=Keine leichte Aufgabe
TTITLE7=Rebus
TTITLE8=Ivory
TTITLE9=Im Elfenbeinturm
TTITLE10=Bergamotte
EXTD=YEAR: 2010
EXTT0=
EXTT1=
EXTT2=
EXTT3=
EXTT4=
EXTT5=
EXTT6=
EXTT7=
EXTT8=
EXTT9=
EXTT10=
PLAYORDER=
